# xmcd
#
# Track frame offsets:
#	150
#	11137
#	37740
#	63207
#	92277
#	106145
#	140615
#	155157
#	167247
#	186975
#	224765
#	253457
#	276052
#
# Disc length: 4052
#
# Revision: 2
# Processed by: cddbd v1.5.1PL0 Copyright (c) Steve Scherf et al.
# Submitted via: CDex 1.51
# Normalized: r0:DSETVAR1,TSWAP
#
DISCID=bc0fd20d
DTITLE=Various Artist - More of the Most Relaxing Jazz Music in the Universe [CD1]
DYEAR=2003
DGENRE=Jazz
TTITLE0=Russell Gunn - Bronwyn
TTITLE1=Elaine Elias - Moments
TTITLE2=Kenny Burrell - Listen to the Dawn
TTITLE3=Houston Person and Teddy Edwards - That's All
TTITLE4=Marian McPartland - All My Life
TTITLE5=Donald Byrd - Someone to Watch Over Me
TTITLE6=Red Garland - The Second Time Around
TTITLE7=Art Pepper - These Foolish Things (Remind Me of You)
TTITLE8=Duke Jordan - Summertime
TTITLE9=Eddie "Lockjaw" Davis - Medley: Old Folks/Out of Nowhere
TTITLE10=Cannonball Adderley - Willow Weep for Me
TTITLE11=Pat Martino - Dreamsville
TTITLE12=Darrell Grant - My Old Flame
EXTD=YEAR: 2003
EXTT0=
EXTT1=
EXTT2=
EXTT3=
EXTT4=
EXTT5=
EXTT6=
EXTT7=
EXTT8=
EXTT9=
EXTT10=
EXTT11=
EXTT12=
PLAYORDER=
